<?xml version="1.0" standalone="no"?>
<!DOCTYPE svg PUBLIC "-//W3C//DTD SVG 20010904//EN"
 "http://www.w3.org/TR/2001/REC-SVG-20010904/DTD/svg10.dtd">
<svg version="1.0" xmlns="http://www.w3.org/2000/svg"
 width="2400.000000pt" height="2400.000000pt" viewBox="0 0 2400.000000 2400.000000"
 preserveAspectRatio="xMidYMid meet">
<metadata>
Created by potrace 1.11, written by Peter Selinger 2001-2013
</metadata>
<g transform="translate(0.000000,2400.000000) scale(0.100000,-0.100000)"
fill="#000000" stroke="none">
<path d="M11568 21635 c-2 -2 -59 -6 -128 -10 -69 -3 -145 -8 -170 -10 -25 -2
-85 -6 -135 -9 -49 -4 -101 -9 -115 -11 -14 -2 -54 -6 -90 -10 -36 -4 -76 -8
-90 -10 -14 -2 -52 -6 -85 -10 -33 -3 -85 -10 -115 -15 -30 -5 -75 -12 -100
-15 -66 -9 -298 -47 -360 -60 -14 -3 -52 -10 -85 -16 -33 -6 -109 -22 -170
-36 -60 -13 -121 -27 -135 -29 -63 -13 -350 -88 -495 -129 -88 -26 -176 -51
-195 -56 -19 -6 -44 -14 -55 -18 -11 -5 -92 -32 -180 -61 -88 -29 -212 -73
-275 -97 -63 -24 -119 -45 -125 -47 -5 -1 -27 -10 -49 -19 -21 -9 -40 -17 -43
-17 -4 0 -179 -72 -218 -90 -11 -5 -45 -20 -75 -33 -356 -154 -809 -391 -1175
-615 -193 -118 -490 -317 -655 -440 -25 -19 -58 -43 -74 -55 -122 -90 -414
-324 -481 -385 -17 -15 -61 -54 -100 -87 -38 -33 -76 -67 -85 -75 -286 -263
-597 -573 -730 -730 -12 -14 -38 -43 -58 -66 -63 -69 -187 -217 -282 -334 -19
-24 -39 -48 -45 -54 -5 -6 -30 -38 -54 -71 -25 -33 -47 -62 -51 -65 -15 -12
-250 -341 -250 -350 0 -6 -3 -10 -7 -10 -5 0 -26 -28 -48 -63 -22 -34 -42 -64
-45 -67 -12 -11 -310 -486 -310 -495 0 -2 -17 -32 -38 -66 -54 -90 -157 -280
-235 -434 -72 -143 -227 -470 -227 -480 0 -3 -11 -28 -24 -57 -88 -191 -205
-498 -314 -823 -65 -194 -199 -668 -219 -774 -2 -14 -6 -28 -8 -31 -2 -4 -7
-22 -10 -41 -3 -19 -15 -74 -26 -124 -26 -117 -56 -268 -64 -325 -3 -25 -10
-61 -15 -80 -5 -19 -11 -55 -15 -80 -3 -25 -8 -57 -11 -72 -3 -15 -7 -40 -9
-57 -6 -46 -26 -192 -30 -221 -4 -28 -16 -137 -21 -190 -2 -19 -6 -57 -9 -85
-3 -27 -8 -81 -10 -120 -3 -38 -7 -88 -10 -110 -27 -243 -27 -1103 0 -1385 2
-19 6 -78 10 -130 3 -52 8 -106 10 -120 2 -14 6 -54 10 -90 4 -36 8 -78 10
-95 2 -16 7 -57 11 -90 3 -33 8 -69 10 -80 2 -10 6 -37 9 -60 6 -37 30 -198
40 -255 2 -14 11 -65 20 -115 9 -49 18 -100 20 -112 2 -11 6 -29 9 -40 3 -10
8 -36 11 -58 4 -22 11 -58 17 -80 5 -22 12 -51 14 -65 3 -14 16 -72 30 -130
14 -58 27 -112 29 -120 4 -18 63 -241 76 -287 5 -18 14 -50 20 -70 5 -21 14
-51 18 -68 5 -16 21 -68 37 -115 15 -47 28 -87 29 -90 18 -73 162 -477 210
-590 13 -30 42 -102 66 -160 23 -58 58 -139 77 -180 31 -67 41 -92 53 -125 8
-23 261 -526 302 -600 70 -128 136 -242 204 -354 34 -57 63 -105 63 -108 0 -2
8 -16 19 -31 10 -15 37 -56 60 -92 22 -36 45 -70 51 -77 5 -7 10 -14 10 -17 0
-5 60 -96 70 -106 3 -3 19 -25 35 -50 71 -107 330 -461 384 -525 14 -17 42
-51 61 -75 49 -61 192 -234 199 -240 3 -3 21 -23 40 -45 228 -269 635 -678
919 -923 11 -9 46 -39 77 -67 32 -27 63 -54 69 -60 6 -5 34 -28 61 -50 28 -21
61 -49 75 -61 42 -37 241 -191 345 -266 5 -4 24 -18 40 -31 36 -27 211 -150
275 -192 25 -17 47 -32 50 -35 9 -9 101 -70 105 -70 5 0 124 -76 223 -142 23
-15 45 -28 47 -28 2 0 44 -24 92 -53 48 -29 120 -71 158 -92 39 -21 88 -49
110 -62 66 -37 544 -276 625 -312 143 -64 155 -70 200 -89 331 -144 901 -345
1210 -426 14 -4 77 -21 140 -37 63 -17 122 -33 130 -34 8 -2 92 -22 185 -44
94 -22 184 -42 200 -44 17 -3 89 -17 160 -30 72 -14 148 -28 170 -31 22 -4 78
-13 125 -21 47 -7 108 -17 135 -20 28 -4 64 -8 80 -11 17 -2 46 -6 65 -9 19
-2 60 -7 90 -10 30 -3 66 -8 80 -10 14 -2 61 -7 105 -10 44 -3 98 -8 120 -10
311 -36 1141 -42 1510 -10 28 2 84 7 125 11 41 3 91 8 110 9 19 2 55 6 80 9
25 3 70 8 100 11 30 3 66 7 80 10 14 2 50 7 80 10 315 34 1024 182 1369 285
41 12 81 23 90 25 13 3 201 63 376 120 61 20 186 64 225 79 19 8 73 29 120 47
115 44 362 145 435 178 33 16 89 41 125 57 238 105 663 329 966 510 128 77
445 280 469 301 6 5 44 32 85 60 65 44 287 206 315 230 6 5 28 22 50 38 22 17
45 35 52 40 6 6 23 19 37 30 15 11 32 25 39 30 6 6 41 34 77 63 102 83 222
185 251 212 8 8 51 47 94 85 266 237 605 581 826 839 19 22 43 49 54 61 11 12
38 44 60 71 21 27 42 51 45 54 3 3 19 23 35 45 17 22 33 42 36 45 4 3 37 43
73 90 37 47 72 92 79 100 7 8 28 38 47 65 19 28 38 52 41 55 3 3 24 30 46 60
197 270 461 681 619 965 21 38 44 78 49 87 6 9 65 124 132 255 219 429 411
887 558 1328 52 155 146 471 169 565 2 8 14 53 26 100 12 47 23 92 25 100 6
24 56 243 61 265 3 11 7 31 10 45 3 14 11 57 19 95 13 67 59 327 69 390 3 17
10 66 16 110 7 44 13 87 15 95 2 14 15 125 20 175 1 11 5 43 9 70 8 67 16 158
31 350 27 346 27 1027 0 1385 -10 135 -17 214 -20 228 -1 10 -6 53 -9 97 -4
44 -9 87 -11 95 -2 8 -6 44 -10 80 -4 36 -8 78 -10 93 -6 46 -51 331 -60 377
-3 14 -10 52 -15 85 -9 47 -52 259 -75 366 -7 33 -46 197 -51 214 -2 6 -5 20
-8 33 -3 13 -8 32 -11 42 -3 10 -8 28 -10 39 -9 39 -13 56 -54 196 -22 77 -47
159 -55 183 -8 23 -15 44 -16 47 0 3 0 6 -1 8 0 1 -2 9 -4 17 -9 46 -139 415
-215 610 -197 509 -376 871 -745 1508 -64 110 -305 476 -317 480 -4 2 -8 8 -8
12 0 14 -289 408 -366 500 -12 14 -83 99 -159 190 -198 238 -328 381 -561 614
-180 181 -376 364 -509 477 -22 19 -42 36 -45 40 -14 15 -301 247 -410 330
-267 205 -616 443 -870 594 -63 37 -123 75 -132 83 -10 8 -18 11 -18 7 0 -4
-8 -1 -17 7 -10 8 -54 35 -98 59 -44 24 -102 56 -130 71 -76 43 -511 260 -590
295 -199 89 -275 121 -435 185 -371 149 -770 280 -1135 373 -71 19 -137 36
-145 39 -8 3 -26 8 -40 11 -14 2 -43 9 -65 14 -158 35 -313 67 -365 77 -14 2
-72 13 -130 24 -100 18 -130 23 -217 35 -21 3 -49 8 -63 10 -14 3 -43 7 -65
10 -22 3 -53 7 -70 10 -16 3 -52 7 -80 10 -27 3 -84 10 -125 15 -41 5 -109 12
-150 15 -41 3 -86 8 -100 10 -14 2 -74 7 -135 10 -60 4 -132 9 -160 12 -55 5
-912 13 -917 8z"/>
</g>
</svg>
